<svg xmlns="http://www.w3.org/2000/svg" viewBox="0 0 820 400" width="820" height="400">
  <rect x="0" y="0" width="820" height="400" rx="8" fill="#111827" />
  
  <line x1="65" y1="345" x2="765" y2="345" stroke="#1f2937" stroke-dasharray="4 4" stroke-width="1" />
  <line x1="65" y1="269" x2="765" y2="269" stroke="#1f2937" stroke-dasharray="4 4" stroke-width="1" />
  <line x1="65" y1="192" x2="765" y2="192" stroke="#1f2937" stroke-dasharray="4 4" stroke-width="1" />
  <line x1="65" y1="116" x2="765" y2="116" stroke="#1f2937" stroke-dasharray="4 4" stroke-width="1" />
  <line x1="65" y1="40" x2="765" y2="40" stroke="#1f2937" stroke-dasharray="4 4" stroke-width="1" />

  <line x1="65" y1="345" x2="765" y2="345" stroke="#374151" />
  <line x1="65" y1="40" x2="65" y2="345" stroke="#374151" />

  <text x="65" y="360" fill="#9ca3af" font-family="monospace" font-size="11" text-anchor="middle">0</text>
  <text x="182" y="360" fill="#9ca3af" font-family="monospace" font-size="11" text-anchor="middle">50</text>
  <text x="298" y="360" fill="#9ca3af" font-family="monospace" font-size="11" text-anchor="middle">100</text>
  <text x="415" y="360" fill="#9ca3af" font-family="monospace" font-size="11" text-anchor="middle">150</text>
  <text x="532" y="360" fill="#9ca3af" font-family="monospace" font-size="11" text-anchor="middle">200</text>
  <text x="648" y="360" fill="#9ca3af" font-family="monospace" font-size="11" text-anchor="middle">250</text>
  <text x="765" y="360" fill="#9ca3af" font-family="monospace" font-size="11" text-anchor="middle">300</text>

  <text x="55" y="349" fill="#9ca3af" font-family="monospace" font-size="11" text-anchor="end">-0.5</text>
  <text x="55" y="273" fill="#9ca3af" font-family="monospace" font-size="11" text-anchor="end">0.0</text>
  <text x="55" y="196" fill="#9ca3af" font-family="monospace" font-size="11" text-anchor="end">0.5</text>
  <text x="55" y="120" fill="#9ca3af" font-family="monospace" font-size="11" text-anchor="end">1.0</text>
  <text x="55" y="44" fill="#9ca3af" font-family="monospace" font-size="11" text-anchor="end">1.5</text>

  <text x="415" y="390" fill="#9ca3af" font-family="monospace" font-size="11" text-anchor="middle">Training Steps</text>
  <text x="14" y="192" fill="#9ca3af" font-family="monospace" font-size="11" text-anchor="middle" transform="rotate(-90 14 192)">Mean Step Reward</text>
  <text x="415" y="25" fill="#f9fafb" font-family="monospace" font-size="16" font-weight="bold" text-anchor="middle">SocraticRL — Reward Curve</text>

  <polyline points="65,262 82,254 99,267 116,259 133,271 150,253 167,262 184,266 201,257 218,264 235,270 252,255 269,261 286,268 303,257 320,265 337,260 354,269 371,254 388,263 405,271 422,258 439,264 456,267 473,255 490,262 507,270 524,257 541,263 558,267 575,254 592,261 609,269 626,258 643,264 660,256 677,263 694,268 711,259 728,264 745,257 765,262" stroke="#6b7280" stroke-dasharray="6 3" stroke-width="2" stroke-linecap="round" fill="none" />
  
  <polyline points="65,298 76,308 87,291 98,301 109,285 120,279 131,273 142,277 153,267 164,272 175,261 186,266 197,259 208,251 219,243 230,236 241,228 252,219 263,211 274,203 285,195 296,187 307,181 318,174 329,168 340,163 351,158 362,153 373,148 384,143 395,139 406,136 417,133 428,137 439,132 450,135 461,130 472,133 483,136 494,131 505,134 516,132 527,137 538,131 549,134 560,133 571,136 582,131 593,134 604,132 615,137 626,130 637,133 648,135 659,131 670,134 681,132 692,135 703,131 714,134 725,132 736,135 747,131 765,133" stroke="#f59e0b" stroke-width="2.5" stroke-linecap="round" fill="none" />

  <rect x="555" y="275" width="200" height="72" rx="6" fill="#1f2937" stroke="#374151" stroke-width="1" />
  <line x1="568" y1="300" x2="590" y2="300" stroke="#6b7280" stroke-dasharray="6 3" stroke-width="2" />
  <text x="596" y="304" fill="#d1d5db" font-family="monospace" font-size="12">Untrained baseline</text>
  <line x1="568" y1="325" x2="590" y2="325" stroke="#f59e0b" stroke-width="2.5" />
  <text x="596" y="329" fill="#d1d5db" font-family="monospace" font-size="12">SocraticRL agent</text>
</svg>
